<?xml version="1.0" encoding="UTF-8"?>
<!-- Generator: visioncortex VTracer -->
<svg id="svg" version="1.1" xmlns="http://www.w3.org/2000/svg" style="display: block;" viewBox="0 0 400 400"><path d="M0 0 C1.63376441 -0.00299637 3.26752811 -0.00639999 4.90129089 -0.01017761 C9.31891626 -0.01897418 13.73652222 -0.02135392 18.15415549 -0.0219934 C20.92073818 -0.02270648 23.687316 -0.02484571 26.45389748 -0.02749062 C36.12454158 -0.03673038 45.79517194 -0.04082731 55.46582031 -0.04003906 C64.44926349 -0.03943897 73.43264649 -0.04998095 82.41607445 -0.06578273 C90.15399317 -0.07890369 97.89189233 -0.08422104 105.62982208 -0.08358365 C110.24007494 -0.08332996 114.85027429 -0.08610943 119.46051598 -0.0967617 C123.80179557 -0.10651946 128.14297135 -0.10646986 132.48425484 -0.09924507 C134.06675241 -0.09820863 135.64925671 -0.10050534 137.23174286 -0.10660553 C161.72400061 -0.19481294 182.95015792 4.64679373 201.77856445 21.14526367 C202.46692383 21.73823242 203.1552832 22.33120117 203.86450195 22.94213867 C218.49632985 36.47513365 226.34343783 56.56411956 227.77856445 76.14526367 C227.92801797 81.55237337 227.92581376 86.95804817 227.92382812 92.36669922 C227.92682449 94.00046362 227.93022812 95.63422733 227.93400574 97.26799011 C227.9428023 101.68561547 227.94518204 106.10322144 227.94582152 110.52085471 C227.94653461 113.2874374 227.94867384 116.05401522 227.95131874 118.82059669 C227.96055851 128.4912408 227.96465543 138.16187116 227.96386719 147.83251953 C227.96326709 156.81596271 227.97380908 165.79934571 227.98961085 174.78277367 C228.00273181 182.52069239 228.00804916 190.25859155 228.00741178 197.99652129 C228.00715809 202.60677416 228.00993755 207.21697351 228.02058983 211.82721519 C228.03034758 216.16849479 228.03029798 220.50967057 228.0230732 224.85095406 C228.02203675 226.43345163 228.02433347 228.01595593 228.03043365 229.59844208 C228.11864107 254.09069983 223.27703439 275.31685714 206.77856445 294.14526367 C205.88911133 295.17780273 205.88911133 295.17780273 204.98168945 296.23120117 C191.44869448 310.86302907 171.35970857 318.71013704 151.77856445 320.14526367 C146.37145475 320.29471719 140.96577996 320.29251298 135.55712891 320.29052734 C133.9233645 320.29352371 132.2896008 320.29692734 130.65583801 320.30070496 C126.23821265 320.30950152 121.82060669 320.31188126 117.40297341 320.31252074 C114.63639073 320.31323383 111.8698129 320.31537305 109.10323143 320.31801796 C99.43258733 320.32725773 89.76195696 320.33135465 80.09130859 320.33056641 C71.10786541 320.32996631 62.12448241 320.3405083 53.14105445 320.35631007 C45.40313573 320.36943103 37.66523657 320.37474838 29.92730683 320.374111 C25.31705397 320.3738573 20.70685461 320.37663677 16.09661293 320.38728905 C11.75533333 320.3970468 7.41415756 320.3969972 3.07287407 320.38977242 C1.4903765 320.38873597 -0.0921278 320.39103269 -1.67461395 320.39713287 C-26.16687171 320.48534028 -47.39302901 315.64373361 -66.22143555 299.14526367 C-67.25397461 298.25581055 -67.25397461 298.25581055 -68.30737305 297.34838867 C-82.93920095 283.8153937 -90.78630892 263.72640779 -92.22143555 244.14526367 C-92.37088906 238.73815397 -92.36868485 233.33247918 -92.36669922 227.92382812 C-92.36969559 226.29006372 -92.37309921 224.65630002 -92.37687683 223.02253723 C-92.3856734 218.60491187 -92.38805314 214.18730591 -92.38869262 209.76967263 C-92.3894057 207.00308995 -92.39154493 204.23651212 -92.39418983 201.46993065 C-92.4034296 191.79928655 -92.40752653 182.12865618 -92.40673828 172.45800781 C-92.40613819 163.47456463 -92.41668017 154.49118163 -92.43248194 145.50775367 C-92.44560291 137.76983495 -92.45092026 130.03193579 -92.45028287 122.29400605 C-92.45002918 117.68375319 -92.45280865 113.07355383 -92.46346092 108.46331215 C-92.47321868 104.12203255 -92.47316908 99.78085678 -92.46594429 95.43957329 C-92.46490785 93.85707572 -92.46720456 92.27457142 -92.47330475 90.69208527 C-92.56151216 66.19982751 -87.71990549 44.9736702 -71.22143555 26.14526367 C-70.6284668 25.4569043 -70.03549805 24.76854492 -69.42456055 24.05932617 C-51.19237474 4.34674921 -25.57868571 -0.0093905 0 0 Z " transform="translate(132.221435546875,39.854736328125)" style="fill: #7C3AEC;"/><path d="M0 0 C8.07892833 8.26254034 10.75 16.38017584 10.75 27.8125 C1.84 27.8125 -7.07 27.8125 -16.25 27.8125 C-17.57 25.1725 -18.89 22.5325 -20.25 19.8125 C-25.00665035 15.39561039 -29.96438117 14.72519974 -36.25 14.8125 C-40.22841676 15.25530323 -43.38769902 16.19341212 -46.6875 18.5625 C-49.04637154 21.95927502 -49.35100753 24.99436449 -49.125 29.0625 C-48.36695938 31.00902188 -48.36695938 31.00902188 -46.1875 31.875 C-45.218125 32.184375 -44.24875 32.49375 -43.25 32.8125 C-42.06535156 33.28171875 -40.88070312 33.7509375 -39.66015625 34.234375 C-35.90565094 35.65188794 -32.16161116 36.58757942 -28.24682617 37.44677734 C-15.69005535 40.22898549 0.11728389 44.52935444 7.75 55.8125 C12.99651082 65.39308498 14.43792875 75.37337074 11.625 86.0625 C8.46044482 95.24706945 1.98053043 101.6609505 -6.59765625 106 C-23.26382462 113.18414865 -43.63566528 112.91787552 -60.5 106.59375 C-69.71009257 102.44920834 -76.33899834 96.11149483 -80.5078125 86.8515625 C-82.62132658 81.04496066 -83.25 76.01735072 -83.25 69.8125 C-74.01 69.8125 -64.77 69.8125 -55.25 69.8125 C-53.93 73.1125 -52.61 76.4125 -51.25 79.8125 C-46.42372363 84.63877637 -39.85099067 85.4137255 -33.25 85.8125 C-28.01697879 85.36462882 -23.49631927 83.99723945 -19.25 80.8125 C-17.68299558 77.67849115 -17.39835439 74.18094905 -18.25 70.8125 C-21.82662316 67.17502692 -25.76150222 65.69352051 -30.5625 64.3125 C-31.60712402 63.99623657 -31.60712402 63.99623657 -32.67285156 63.67358398 C-36.91139146 62.41410766 -41.17202697 61.3383478 -45.47949219 60.34423828 C-55.84809317 57.93625724 -67.21238034 54.31394455 -74.25 45.8125 C-79.42872621 37.41566195 -81.60216826 29.11191677 -79.7890625 19.32421875 C-77.15479132 9.3604754 -71.98664338 2.23753951 -63.25 -3.1875 C-62.64542969 -3.56648437 -62.04085937 -3.94546875 -61.41796875 -4.3359375 C-42.3309151 -15.02468754 -17.56007526 -11.81928143 0 0 Z " transform="translate(188.25,149.1875)" style="fill: #FEFEFF;"/><path d="M0 0 C26.73 0 53.46 0 81 0 C81 23 81 23 80 24 C78.40389018 24.09333705 76.80366572 24.11745372 75.20483398 24.11352539 C74.18385117 24.11344986 73.16286835 24.11337433 72.11094666 24.11329651 C71.0005452 24.10813522 69.89014374 24.10297394 68.74609375 24.09765625 C67.61551041 24.0962413 66.48492706 24.09482635 65.32008362 24.09336853 C61.69252935 24.08775019 58.06503576 24.07519458 54.4375 24.0625 C51.98502693 24.05748736 49.5325529 24.05292405 47.08007812 24.04882812 C41.05334296 24.0386237 35.02673978 24.01905186 29 24 C29 33.24 29 42.48 29 52 C44.51 52 60.02 52 76 52 C76 59.59 76 67.18 76 75 C60.49 75 44.98 75 29 75 C29 88.86 29 102.72 29 117 C19.43 117 9.86 117 0 117 C0 78.39 0 39.78 0 0 Z " transform="translate(214,141)" style="fill: #FFFFFF;"/></svg>